#!OML:ASF F:\VICON\USERDATA\INSTALL\Justin_Nancy\Justin_Nancy.ASF
:FULLY-SPECIFIED
:DEGREES
109
root 0.728459 17.7179 -15.741 4.54737 -2.78369 -0.71748
lowerback 4.56895 -0.0863281 -0.169885
upperback -0.560594 -0.0414571 2.6958
thorax -3.13905 0.00572471 2.87954
lowerneck -16.1322 -4.29708 -10.4347
upperneck 20.8757 -4.61608 5.81422
head 9.66112 -2.33755 3.15213
rclavicle 7.40473e-015 -3.4191e-014
rhumerus -33.0338 -9.59487 -79.0868
rradius 33.4713
rwrist 4.73295
rhand -11.6288 13.5771
rfingers 7.12502
rthumb 14.4147 -15.9023
lclavicle 7.40473e-015 -3.4191e-014
lhumerus -34.579 12.4842 83.2576
lradius 30.9699
lwrist -4.39683
lhand -21.2135 19.2591
lfingers 7.12502
lthumb 5.16817 49.1761
rfemur -10.6085 4.77671 19.27
rtibia 22.7842
rfoot -11.71 -7.51259
rtoes 7.8827
lfemur -11.8901 -3.96196 -17.2173
ltibia 24.9516
lfoot -13.8111 8.76481
ltoes -1.39385
110
root 0.726613 17.7166 -15.7423 4.51211 -2.79367 -0.719762
lowerback 4.67062 -0.129493 -0.278374
upperback -0.68219 -0.0983533 2.78685
thorax -3.31893 -0.0174618 3.04125
lowerneck -15.7799 -4.21022 -10.5049
upperneck 20.8543 -4.49396 5.72652
head 9.57718 -2.30162 3.15278
rclavicle -9.64106e-015 -1.43125e-014
rhumerus -33.2495 -9.33072 -79.0153
rradius 33.4976
rwrist 4.6862
rhand -11.5883 13.6471
rfingers 7.12502
rthumb 14.4537 -15.8295
lclavicle -9.64106e-015 -1.43125e-014
lhumerus -34.853 12.6573 83.2604
lradius 30.9762
lwrist -4.27817
lhand -21.4384 19.0021
lfingers 7.12502
lthumb 4.95104 48.9243
rfemur -10.597 4.84249 19.2832
rtibia 22.8232
rfoot -11.7348 -7.58683
rtoes 7.42391
lfemur -11.8632 -3.97191 -17.2097
ltibia 24.9528
lfoot -13.8156 8.78915
ltoes -1.31269
111
root 0.724792 17.7139 -15.7417 4.49648 -2.80006 -0.719329
lowerback 4.68595 -0.141986 -0.29602
upperback -0.72355 -0.11423 2.80858
thorax -3.36944 -0.0240691 3.07548
lowerneck -15.6181 -4.15853 -10.5831
upperneck 20.7985 -4.42597 5.76118
head 9.52416 -2.2743 3.18815
rclavicle -9.64106e-015 1.98785e-014
rhumerus -33.3604 -9.23751 -78.9881
rradius 33.5241
rwrist 4.72487
rhand -11.5024 13.7966
rfingers 7.12502
rthumb 14.5365 -15.6741
lclavicle -9.64106e-015 1.98785e-014
lhumerus -35.0152 12.5254 83.3629
lradius 31.2269
lwrist -3.99447
lhand -21.668 19.6022
lfingers 7.12502
lthumb 4.72933 49.5294
rfemur -10.5947 4.88404 19.2862
rtibia 22.8625
rfoot -11.8071 -7.56904
rtoes 7.29891
lfemur -11.8564 -3.91054 -17.2079
ltibia 24.9523
lfoot -13.7751 8.76092
ltoes -1.41994
112
root 0.724556 17.7115 -15.741 4.37343 -2.83082 -0.776154
lowerback 4.7987 -0.114433 -0.214771
upperback -0.678835 -0.0714465 2.83065
thorax -3.38919 -0.00428726 3.04982
lowerneck -15.6243 -4.18904 -10.6822
upperneck 20.8033 -4.4595 5.8335
head 9.53443 -2.28978 3.22556
rclavicle 7.55382e-015 9.54166e-015
rhumerus -33.3539 -9.18897 -78.9697
rradius 33.5361
rwrist 4.67201
rhand -11.5227 13.4383
rfingers 7.12502
rthumb 14.5169 -16.0338
lclavicle 7.55382e-015 9.54166e-015
lhumerus -35.0882 12.4692 83.3986
lradius 31.3217
lwrist -3.9285
lhand -21.4751 18.8991
lfingers 7.12502
lthumb 4.91562 48.8221
rfemur -10.4675 4.83647 19.3558
rtibia 22.8738
rfoot -11.8281 -7.49153
rtoes 7.18026
lfemur -11.7354 -3.7984 -17.1714
ltibia 24.9648
lfoot -13.7543 8.77195
ltoes -2.59515
113
root 0.72529 17.7092 -15.7402 4.28993 -2.8311 -0.654112
lowerback 4.91051 -0.10957 -0.363908
upperback -0.692539 -0.0716851 2.84592
thorax -3.46629 -0.000558754 3.15102
lowerneck -15.5773 -4.21812 -10.8112
upperneck 20.7932 -4.48509 5.8893
head 9.52947 -2.30644 3.26349
rclavicle -1.00883e-014 -1.90833e-014
rhumerus -33.3951 -9.02848 -78.9069
rradius 33.5672
rwrist 4.50939
rhand -11.3969 13.0665
rfingers 7.12502
rthumb 14.6381 -16.3968
lclavicle -1.00883e-014 -1.90833e-014
lhumerus -35.1356 12.4692 83.5066
lradius 31.4085
lwrist -3.84532
lhand -21.4926 19.7588
lfingers 7.12502
lthumb 4.89868 49.6822
rfemur -10.3724 4.75226 19.2175
rtibia 22.8786
rfoot -11.8381 -7.45149
rtoes 7.15578
lfemur -11.6614 -3.79361 -17.3265
ltibia 24.98
lfoot -13.7558 8.79651
ltoes -3.0427
114
root 0.725448 17.7075 -15.7359 4.27033 -2.78044 -0.707489
lowerback 4.90545 -0.13267 -0.333442
upperback -0.70658 -0.0985611 2.9003
thorax -3.47648 -0.0137993 3.19255
lowerneck -15.4413 -4.19215 -10.8123
upperneck 20.6886 -4.45137 5.84987
head 9.46366 -2.29579 3.25423
rclavicle -8.10048e-015 -1.51076e-014
rhumerus -33.4853 -8.84184 -78.8898
rradius 33.7152
rwrist 4.34358
rhand -11.3849 13.1274
rfingers 7.12502
rthumb 14.6497 -16.3351
lclavicle -8.10048e-015 -1.51076e-014
lhumerus -35.202 12.731 83.4375
lradius 31.3122
lwrist -4.0589
lhand -21.2703 18.7426
lfingers 7.12502
lthumb 5.11336 48.6609
rfemur -10.3186 4.67262 19.2765
rtibia 22.8802
rfoot -11.7937 -7.35686
rtoes 7.54177
lfemur -11.6675 -3.82206 -17.2635
ltibia 25.0034
lfoot -13.7167 8.76914
ltoes -3.479
115
root 0.724043 17.7058 -15.7342 4.25915 -2.75837 -0.798121
lowerback 4.8613 -0.151677 -0.222061
upperback -0.675795 -0.117893 2.91821
thorax -3.41877 -0.026208 3.14903
lowerneck -15.345 -4.14775 -10.8508
upperneck 20.6142 -4.40843 5.93608
head 9.41841 -2.27 3.29681
rclavicle -8.39865e-015 4.77083e-015
rhumerus -33.4832 -8.73853 -78.9654
rradius 33.8251
rwrist 4.20357
rhand -11.4577 13.2257
rfingers 7.12502
rthumb 14.5795 -16.2419
lclavicle -8.39865e-015 4.77083e-015
lhumerus -35.191 12.806 83.4005
lradius 31.3123
lwrist -4.04516
lhand -21.236 17.6413
lfingers 7.12502
lthumb 5.14652 47.5588
rfemur -10.3105 4.68584 19.3953
rtibia 22.897
rfoot -11.7654 -7.43976
rtoes 7.59031
lfemur -11.6902 -3.79754 -17.1505
ltibia 25.0407
lfoot -13.7172 8.73173
ltoes -3.20623
116
root 0.721367 17.7065 -15.7375 4.32335 -2.74075 -0.830404
lowerback 4.79667 -0.174751 -0.17528
upperback -0.649827 -0.147843 2.90645
thorax -3.35389 -0.042903 3.11182
lowerneck -15.3883 -4.12483 -10.8491
upperneck 20.5716 -4.38486 5.99777
head 9.41033 -2.25094 3.3205
rclavicle -9.24349e-015 2.3059e-014
rhumerus -33.36 -8.76675 -79.0495
rradius 33.8064
rwrist 4.26922
rhand -11.4748 13.2069
rfingers 7.12502
rthumb 14.5631 -16.2619
lclavicle -9.24349e-015 2.3059e-014
lhumerus -35.1302 12.774 83.3944
lradius 31.3849
lwrist -3.92528
lhand -21.208 17.4534
lfingers 7.12502
lthumb 5.17347 47.3702
rfemur -10.4024 4.68805 19.44
rtibia 22.9104
rfoot -11.7915 -7.48024
rtoes 7.1345
lfemur -11.7826 -3.75291 -17.0947
ltibia 25.0963
lfoot -13.7989 8.69351
ltoes -2.81632
117
root 0.721198 17.7068 -15.7429 4.3721 -2.76172 -0.872119
lowerback 4.80236 -0.152308 -0.116298
upperback -0.684767 -0.113635 2.89994
thorax -3.39523 -0.0264452 3.06952
lowerneck -15.3261 -4.15587 -10.8024
upperneck 20.5585 -4.44156 5.97466
head 9.39784 -2.27698 3.29743
rclavicle 6.4605e-015 3.33958e-014
rhumerus -33.384 -8.86268 -79.0577
rradius 33.8345
rwrist 4.44062
rhand -11.7075 12.9877
rfingers 7.12502
rthumb 14.3389 -16.4972
lclavicle 6.4605e-015 3.33958e-014
lhumerus -35.1441 12.7129 83.3903
lradius 31.3999
lwrist -3.96788
lhand -21.1575 18.5811
lfingers 7.12502
lthumb 5.22231 48.4967
rfemur -10.4791 4.65176 19.4791
rtibia 22.9312
rfoot -11.8216 -7.3904
rtoes 7.36095
lfemur -11.8512 -3.77287 -17.0357
ltibia 25.1569
lfoot -13.8515 8.67656
ltoes -2.58968
118
root 0.720059 17.7067 -15.7457 4.30381 -2.73484 -0.830097
lowerback 4.93848 -0.123222 -0.172216
upperback -0.703258 -0.0752063 2.91386
thorax -3.49315 -0.00510957 3.11396
lowerneck -15.1841 -4.18835 -10.8281
upperneck 20.4803 -4.48844 5.95098
head 9.34906 -2.30449 3.28741
rclavicle -7.8023e-015 3.18055e-015
rhumerus -33.3634 -8.90012 -78.9921
rradius 33.7658
rwrist 4.45633
rhand -11.9325 13.0283
rfingers 7.12502
rthumb 14.122 -16.4718
lclavicle -7.8023e-015 3.18055e-015
lhumerus -35.1851 12.5637 83.4971
lradius 31.4369
lwrist -3.94305
lhand -21.2927 19.2738
lfingers 7.12502
lthumb 5.09173 49.1926
rfemur -10.3971 4.60238 19.439
rtibia 22.9351
rfoot -11.8649 -7.30878
rtoes 7.471
lfemur -11.8188 -3.77722 -17.0689
ltibia 25.2449
lfoot -13.8692 8.5989
ltoes -2.72413
119
root 0.717003 17.7061 -15.7457 4.25309 -2.71936 -0.831985
lowerback 4.95762 -0.12953 -0.178518
upperback -0.668897 -0.0843718 2.91968
thorax -3.46786 -0.00996986 3.12413
lowerneck -15.1743 -4.16167 -10.846
upperneck 20.4988 -4.45127 5.96367
head 9.3509 -2.28761 3.30016
rclavicle -9.59136e-015 3.73715e-014
rhumerus -33.3022 -8.83748 -79.0264
rradius 33.6866
rwrist 4.26457
rhand -11.7803 13.3409
rfingers 7.12502
rthumb 14.2687 -16.1489
lclavicle -9.59136e-015 3.73715e-014
lhumerus -35.1492 12.6825 83.4723
lradius 31.4222
lwrist -4.06824
lhand -21.3815 19.3289
lfingers 7.12502
lthumb 5.00603 49.2498
rfemur -10.3527 4.61804 19.4672
rtibia 22.9506
rfoot -11.8932 -7.38334
rtoes 7.06536
lfemur -11.7967 -3.70179 -17.0649
ltibia 25.3049
lfoot -13.9018 8.56722
ltoes -3.19902
120
root 0.714107 17.7057 -15.7463 4.32152 -2.83888 -0.971876
lowerback 4.77827 -0.0849938 -0.00408025
upperback -0.601207 -0.0195439 2.90122
thorax -3.30033 0.0169804 2.99939
lowerneck -15.2872 -4.1595 -10.8252
upperneck 20.5494 -4.46531 6.06219
head 9.39197 -2.28082 3.32921
rclavicle -5.96354e-016 6.36111e-015
rhumerus -33.3022 -8.85264 -79.1555
rradius 33.8335
rwrist 4.15329
rhand -11.719 13.1328
rfingers 7.12502
rthumb 14.3277 -16.3528
lclavicle -5.96354e-016 6.36111e-015
lhumerus -35.0183 12.5759 83.44
lradius 31.4542
lwrist -3.96995
lhand -21.2294 19.4984
lfingers 7.12502
lthumb 5.15284 49.4157
rfemur -10.4673 4.74438 19.6225
rtibia 22.9628
rfoot -11.8375 -7.42018
rtoes 6.96127
lfemur -11.8434 -3.66112 -16.8898
ltibia 25.3286
lfoot -13.9935 8.58186
ltoes -1.58826
